<?xml version="1.0" encoding="utf-8"?>
<!-- Generator: Adobe Illustrator 28.0.0, SVG Export Plug-In . SVG Version: 6.00 Build 0)  -->
<svg version="1.1" id="Layer_1" xmlns="http://www.w3.org/2000/svg" xmlns:xlink="http://www.w3.org/1999/xlink" x="0px" y="0px"
	 viewBox="0 0 3216 744.1" style="enable-background:new 0 0 3216 744.1;" xml:space="preserve">
<style type="text/css">
	.st0{fill:#FCB216;}
	.st1{font-family:'TacticSans-Bld';}
	.st2{font-size:307.3484px;}
	.st3{fill:#0072BC;}
	.st4{fill:#95979A;}
	.st5{font-family:'Raleway-Regular';}
	.st6{font-size:148.9923px;}
	.st7{fill:none;}
</style>
<g>
	<g>
		<text transform="matrix(0.9088 0 0 1 987.0665 389.1698)" class="st0 st1 st2">HAVENWOODS </text>
	</g>
	<g>
		<g>
			<g>
				<g>
					<rect x="336.5" y="389.2" class="st3" width="64.3" height="64.3"/>
					<rect x="425.5" y="389.2" class="st3" width="64.3" height="64.3"/>
				</g>
				<g>
					<rect x="336.5" y="475.4" class="st3" width="64.3" height="64.3"/>
					<rect x="425.5" y="475.4" class="st3" width="64.3" height="64.3"/>
				</g>
			</g>
		</g>
		<path class="st3" d="M511.2,609.6v43.5C348.1,639.2,220,502.5,220,335.7c0-175.9,142.6-318.5,318.5-318.5
			c69.8,0,134.4,22.5,186.9,60.6C665,29.1,588.1,0,504.5,0C309.8,0,152,157.8,152,352.5S309.8,705,504.5,705c2.2,0,4.4,0,6.6-0.1
			v39.2l58.2-33.6l58.2-33.6l-58.2-33.6L511.2,609.6z"/>
		<g>
			<path class="st3" d="M125.7,377.5c-19.3,11.6-39.4,22.6-60.3,33.1C43.3,421.6,21.5,431.4,0,440c40.2,5.5,80.4,10.9,120.7,16.4
				c6.4-3.5,13-7.2,19.6-11C133.4,423.4,128.5,400.7,125.7,377.5z"/>
			<path class="st3" d="M685.6,368.6V229.4h-76.8v86.2c-5.3-4.1-10.6-8.3-16-12.6c-84.4-67.8-142.2-138.6-179.7-192.3
				c-43.1,59-98.5,122.9-168.7,181.9c-0.6,7.3-0.8,14.7-0.8,22.2c0,20.2,2.1,40,6,59c19.5-14.5,39.3-30.2,59.2-47.4
				c40.7-34.9,75.2-69.8,104.3-102.5c29.1,32.7,63.6,67.6,104.3,102.5c67.1,57.6,132.5,99.5,188.2,129.9
				c40.2-5.5,80.4-10.9,120.7-16.4C786.9,424.1,738.3,401.3,685.6,368.6z"/>
		</g>
		<path class="st0" d="M640.5,87.1c-10.5,0-20.8,0.6-31,1.8l-4.7-33.5l-41.5,32.3L521.8,120l48.8,19.8l48.8,19.8l-4.8-34.4
			c0.1,0,0.2,0,0.4,0c132.5,0,239.9,107.4,239.9,239.9S747.5,605,615,605c-52.6,0-101.2-16.9-140.8-45.6
			C519.7,596,577.6,618,640.5,618c146.6,0,265.4-118.8,265.4-265.4C906,205.9,787.1,87.1,640.5,87.1z"/>
	</g>
</g>
<text transform="matrix(0.9088 0 0 1 1002.7091 582.3622)" class="st4 st5 st6">(SPECIAL NEEDS) CARE LTD</text>
<g>
	<line class="st7" x1="2824" y1="539.7" x2="3216" y2="539.7"/>
	<polygon class="st4" points="2824,529.2 3216,539.7 2824,550.2 	"/>
</g>
</svg>
